<svg width="42.000000" height="57.000000" viewBox="0 0 42 57" fill="none" xmlns="http://www.w3.org/2000/svg" xmlns:xlink="http://www.w3.org/1999/xlink">
	<desc>
			Created with Pixso.
	</desc>
	<defs/>
	<path id="Vector" d="M11 25.08C10.09 23.5 9.57 21.69 9.57 19.77C9.57 13.7 14.68 8.79 20.98 8.79C27.28 8.79 32.39 13.7 32.39 19.77C32.39 21.69 31.87 23.5 30.96 25.08M9.58 35C4.67 31.59 1.48 26.03 1.48 19.77C1.48 9.4 10.21 1 20.98 1C31.75 1 40.48 9.4 40.48 19.77C40.48 26.03 37.29 31.59 32.38 " stroke="#87A7D5" stroke-opacity="1.000000" stroke-width="3.000000" stroke-linejoin="round"/>
	<path id="Vector" d="M23.6 55L24.99 41.51L28.13 38.96L28.48 28.02L23.6 26.57L20.81 30.57L18.36 26.57L13.48 28.02L13.48 38.96L16.62 41.51L18.02 55L23.6 55ZM21.15 24.01C19.04 24.01 17.32 22.22 17.32 20C17.32 17.79 19.04 16 21.15 16C23.27 16 24.99 17.79 24.99 20C24.99 22.22 23.27 24.01 21.15 24.01Z" stroke="#1E2C3A" stroke-opacity="1.000000" stroke-width="3.000000" stroke-linejoin="round"/>
</svg>
