<svg width="64.000000" height="64.000000" viewBox="0 0 64 64" fill="none" xmlns="http://www.w3.org/2000/svg" xmlns:xlink="http://www.w3.org/1999/xlink">
	<desc>
			Created with Pixso.
	</desc>
	<defs/>
	<path id="Vector" d="M27.22 5.13C15.75 7.11 29.31 21.97 33.13 23.29C34.98 16.57 36.39 3.54 27.22 5.13ZM31.04 23.95C27.22 24.28 23.4 22.96 18.19 17.34C12.97 11.73 9.28 11.81 5.33 15.36M35.56 23.95C37.76 18.66 46.68 8.92 50.85 14.37C53.63 18 43.78 22.85 35.91 " stroke="#87A7D5" stroke-opacity="1.000000" stroke-width="3.000000" stroke-linejoin="round"/>
	<path id="Vector" d="M13.33 27L13.33 38.33L15.07 39.66L15.07 59L31.42 59L31.42 27L13.33 27ZM53.33 27L53.33 38.33L51.59 39.66L51.59 59L35.24 59L35.24 27L53.33 27Z" stroke="#1E2C3A" stroke-opacity="1.000000" stroke-width="3.000000" stroke-linejoin="round"/>
</svg>
