<svg width="64.000000" height="64.000000" viewBox="0 0 64 64" fill="none" xmlns="http://www.w3.org/2000/svg" xmlns:xlink="http://www.w3.org/1999/xlink">
	<desc>
			Created with Pixso.
	</desc>
	<defs/>
	<path id="Vector" d="M34.77 6.78C35.57 8.21 37.45 8.63 38.8 7.69L40.76 6.31C42.54 5.06 45.01 6.24 45.13 8.39L45.27 10.77C45.36 12.4 46.87 13.59 48.5 13.31L50.87 12.91C53.02 12.55 54.73 14.67 53.9 16.66L52.97 18.87C52.34 20.38 53.18 22.09 54.76 22.55L57.08 23.21C59.17 23.8 59.78 26.44 58.16 27.88L56.36 29.47C55.13 30.56 55.13 32.46 56.36 33.55L58.16 35.14C59.78 36.58 59.17 39.22 57.08 39.81L54.76 40.47C53.18 40.93 52.34 42.64 52.97 44.15L53.9 46.36C54.73 48.35 53.02 50.47 50.87 50.1L48.5 49.71C46.87 49.43 45.36 50.62 45.27 52.25L45.13 54.63C45.01 56.78 42.54 57.96 40.76 56.71L38.8 55.33C37.45 54.39 35.57 54.81 34.77 56.24L33.61 58.33C32.55 60.21 29.81 60.21 28.76 58.33L27.59 56.24C26.79 54.81 24.91 54.39 23.57 55.33L21.6 56.71C19.82 57.96 17.35 56.78 17.23 54.63L17.1 52.25C17 50.62 15.5 49.43 13.87 49.71L11.49 50.1C9.34 50.47 7.63 48.35 8.47 46.36L9.39 44.15C10.02 42.64 9.19 40.93 7.6 40.47L5.28 39.81C3.19 39.22 2.58 36.58 4.2 35.14L6 33.55C7.23 32.46 7.23 30.56 6 29.47L4.2 27.88C2.58 26.44 3.19 23.8 5.28 23.21L7.6 22.55C9.19 22.09 10.02 20.38 9.39 18.87L8.47 16.66C7.63 14.67 9.34 12.55 11.49 12.91L13.87 13.31C15.5 13.59 17 12.4 17.1 10.77L17.23 8.39C17.35 6.24 19.82 5.06 21.6 6.31L23.57 7.69C24.91 8.63 26.79 8.21 27.59 6.78L28.76 4.69C29.81 2.81 32.55 2.81 33.61 4.69L34.77 6.78Z" stroke="#1E2C3A" stroke-opacity="1.000000" stroke-width="3.000000"/>
	<path id="Vector" d="M38.45 23.29L23.22 41.78M23.22 31.85C20.93 31.85 19.07 30.01 19.07 27.74C19.07 25.48 20.93 23.64 23.22 23.64C25.51 23.64 27.37 25.48 27.37 27.74C27.37 30.01 25.51 31.85 23.22 31.85ZM38.45 41.44C36.16 41.44 34.3 39.6 34.3 37.33C34.3 35.06 36.16 33.22 38.45 33.22C40.75 33.22 42.61 35.06 42.61 37.33C42.61 39.6 40.75 41.44 38.45 41.44Z" stroke="#87A7D5" stroke-opacity="1.000000" stroke-width="3.000000" stroke-linecap="round"/>
</svg>
