<svg width="231.000000" height="71.000000" viewBox="0 0 231 71" fill="none" xmlns="http://www.w3.org/2000/svg" xmlns:xlink="http://www.w3.org/1999/xlink">
	<desc>
			Created with Pixso.
	</desc>
	<defs>
		<clipPath id="clip33_1189">
			<rect id="Logo" rx="-0.390885" width="229.425980" height="69.718231" transform="translate(0.390885 0.390885)" fill="white" fill-opacity="0"/>
		</clipPath>
		<linearGradient id="paint_linear_33_1175_0" x1="183.456314" y1="42.759537" x2="262.465088" y2="42.814583" gradientUnits="userSpaceOnUse">
			<stop stop-color="#F99F36"/>
			<stop offset="1.000000" stop-color="#F3817D"/>
		</linearGradient>
		<linearGradient id="paint_linear_33_1186_0" x1="91.303162" y1="-1.697621" x2="90.995224" y2="61.315407" gradientUnits="userSpaceOnUse">
			<stop stop-color="#F99F32"/>
			<stop offset="1.000000" stop-color="#F3817D"/>
		</linearGradient>
	</defs>
	<rect id="Logo" rx="-0.390885" width="229.425980" height="69.718231" transform="translate(0.390885 0.390885)" fill="#FFFFFF" fill-opacity="0"/>
	<g clip-path="url(#clip33_1189)">
		<path id="Vector" d="M125.01 6.76C124.91 6.64 124.77 6.52 124.61 6.42C124.44 6.31 124.25 6.21 124.05 6.12C123.84 6.04 123.61 5.97 123.36 5.91C123.11 5.86 122.85 5.83 122.58 5.83C121.89 5.83 121.38 5.97 121.06 6.23C120.74 6.48 120.58 6.84 120.58 7.3C120.58 7.54 120.62 7.74 120.72 7.9C120.81 8.06 120.95 8.2 121.15 8.31C121.35 8.42 121.6 8.52 121.89 8.6C122.19 8.69 122.53 8.77 122.94 8.87C123.4 8.97 123.81 9.09 124.19 9.21C124.56 9.35 124.88 9.5 125.14 9.7C125.41 9.89 125.61 10.13 125.74 10.4C125.88 10.67 125.95 11.02 125.95 11.42C125.95 11.85 125.86 12.21 125.7 12.53C125.52 12.84 125.3 13.1 125.01 13.31C124.72 13.51 124.37 13.66 123.98 13.76C123.59 13.86 123.16 13.9 122.7 13.9C122.01 13.9 121.37 13.79 120.75 13.58C120.13 13.37 119.57 13.06 119.07 12.64L119.61 11.69C119.74 11.83 119.91 11.98 120.13 12.12C120.34 12.26 120.58 12.39 120.86 12.5C121.13 12.62 121.42 12.71 121.74 12.78C122.05 12.85 122.38 12.89 122.73 12.89C123.36 12.89 123.86 12.77 124.21 12.55C124.56 12.32 124.74 11.99 124.74 11.53C124.74 11.28 124.69 11.07 124.57 10.9C124.45 10.73 124.29 10.58 124.07 10.46C123.85 10.33 123.59 10.22 123.26 10.12C122.94 10.03 122.57 9.92 122.15 9.82C121.7 9.71 121.3 9.6 120.96 9.47C120.61 9.35 120.33 9.2 120.1 9.02C119.87 8.84 119.69 8.63 119.57 8.38C119.46 8.13 119.4 7.82 119.4 7.47C119.4 7.04 119.47 6.66 119.64 6.34C119.79 6.01 120.02 5.73 120.3 5.51C120.58 5.28 120.93 5.11 121.32 5C121.71 4.89 122.14 4.83 122.6 4.83C123.2 4.83 123.75 4.92 124.23 5.1C124.72 5.29 125.15 5.53 125.53 5.84L125 6.76L125.01 6.76Z" fill="#999999" fill-opacity="1.000000" fill-rule="nonzero"/>
		<path id="Vector" d="M131.45 13.94C131.14 13.94 130.85 13.89 130.58 13.79C130.32 13.68 130.08 13.54 129.89 13.35C129.69 13.16 129.53 12.95 129.42 12.7C129.31 12.45 129.25 12.18 129.25 11.89C129.25 11.59 129.32 11.31 129.45 11.06C129.58 10.81 129.77 10.6 130.02 10.43C130.27 10.25 130.56 10.12 130.9 10.02C131.24 9.92 131.61 9.87 132.01 9.87C132.33 9.87 132.65 9.9 132.98 9.95C133.31 10.02 133.6 10.1 133.85 10.19L133.85 9.67C133.85 9.13 133.7 8.71 133.4 8.4C133.09 8.09 132.67 7.94 132.11 7.94C131.45 7.94 130.75 8.2 130.03 8.7L129.66 7.98C130.5 7.41 131.36 7.13 132.22 7.13C133.08 7.13 133.76 7.37 134.23 7.82C134.72 8.28 134.96 8.93 134.96 9.78L134.96 12.46C134.96 12.71 135.08 12.85 135.31 12.86L135.31 13.82C135.19 13.83 135.1 13.85 135.02 13.86C134.94 13.86 134.87 13.87 134.79 13.87C134.57 13.87 134.4 13.81 134.26 13.68C134.13 13.54 134.05 13.39 134.03 13.21L134.01 12.74C133.71 13.14 133.34 13.43 132.9 13.64C132.45 13.84 131.97 13.94 131.46 13.94L131.45 13.94ZM131.75 13.11C132.14 13.11 132.5 13.04 132.85 12.89C133.19 12.75 133.45 12.55 133.62 12.31C133.78 12.15 133.87 11.99 133.87 11.82L133.87 10.85C133.33 10.64 132.77 10.53 132.19 10.53C131.61 10.53 131.19 10.65 130.84 10.89C130.5 11.12 130.32 11.42 130.32 11.8C130.32 11.99 130.36 12.16 130.42 12.32C130.5 12.47 130.6 12.61 130.73 12.73C130.86 12.85 131.01 12.94 131.19 13C131.37 13.07 131.56 13.11 131.75 13.11L131.75 13.11Z" fill="#999999" fill-opacity="1.000000" fill-rule="nonzero"/>
		<path id="Vector" d="M138.81 10.52C138.81 10.06 138.88 9.62 139.05 9.21C139.21 8.81 139.43 8.45 139.73 8.14C140.03 7.84 140.37 7.59 140.78 7.41C141.18 7.23 141.64 7.14 142.14 7.14C142.8 7.14 143.36 7.28 143.83 7.58C144.31 7.87 144.66 8.26 144.91 8.74L143.83 9.09C143.66 8.77 143.43 8.53 143.13 8.36C142.82 8.19 142.5 8.1 142.12 8.1C141.82 8.1 141.53 8.16 141.27 8.28C141 8.41 140.77 8.57 140.58 8.79C140.39 9.01 140.24 9.27 140.12 9.56C140 9.85 139.95 10.17 139.95 10.53C139.95 10.88 140.01 11.19 140.13 11.49C140.25 11.8 140.4 12.06 140.6 12.28C140.79 12.5 141.03 12.68 141.28 12.81C141.54 12.93 141.83 13 142.14 13C142.33 13 142.52 12.97 142.71 12.92C142.89 12.86 143.07 12.79 143.22 12.7C143.38 12.6 143.51 12.5 143.63 12.38C143.75 12.25 143.83 12.13 143.88 11.98L144.96 12.31C144.86 12.55 144.72 12.78 144.54 12.97C144.36 13.18 144.15 13.35 143.9 13.49C143.66 13.63 143.39 13.75 143.09 13.83C142.79 13.92 142.48 13.96 142.15 13.96C141.66 13.96 141.21 13.86 140.79 13.68C140.39 13.5 140.03 13.25 139.74 12.94C139.45 12.63 139.21 12.27 139.05 11.85C138.88 11.44 138.81 11 138.81 10.54L138.81 10.52Z" fill="#999999" fill-opacity="1.000000" fill-rule="nonzero"/>
		<path id="Vector" d="M152.2 8.22C151.64 8.23 151.16 8.38 150.74 8.65C150.31 8.92 150.01 9.29 149.84 9.77L149.84 13.82L148.73 13.82L148.73 7.25L149.76 7.25L149.76 8.77C149.99 8.32 150.28 7.95 150.65 7.67C151.02 7.39 151.42 7.23 151.83 7.2L152.04 7.2C152.1 7.2 152.15 7.2 152.19 7.22L152.19 8.23L152.2 8.22Z" fill="#999999" fill-opacity="1.000000" fill-rule="nonzero"/>
		<path id="Vector" d="M157.49 13.94C157.18 13.94 156.89 13.89 156.62 13.79C156.36 13.68 156.12 13.54 155.93 13.35C155.73 13.16 155.58 12.95 155.46 12.7C155.35 12.45 155.29 12.18 155.29 11.89C155.29 11.59 155.36 11.31 155.49 11.06C155.62 10.81 155.81 10.6 156.06 10.43C156.31 10.25 156.6 10.12 156.94 10.02C157.28 9.92 157.65 9.87 158.05 9.87C158.37 9.87 158.69 9.9 159.02 9.95C159.35 10.02 159.64 10.1 159.89 10.19L159.89 9.67C159.89 9.13 159.74 8.71 159.44 8.4C159.13 8.09 158.71 7.94 158.16 7.94C157.49 7.94 156.79 8.2 156.07 8.7L155.7 7.98C156.54 7.41 157.4 7.13 158.26 7.13C159.12 7.13 159.8 7.37 160.27 7.82C160.76 8.28 161 8.93 161 9.78L161 12.46C161 12.71 161.12 12.85 161.35 12.86L161.35 13.82C161.24 13.83 161.14 13.85 161.06 13.86C160.99 13.86 160.91 13.87 160.83 13.87C160.61 13.87 160.44 13.81 160.31 13.68C160.17 13.54 160.09 13.39 160.07 13.21L160.05 12.74C159.75 13.14 159.38 13.43 158.94 13.64C158.49 13.84 158.01 13.94 157.5 13.94L157.49 13.94ZM157.79 13.11C158.18 13.11 158.55 13.04 158.89 12.89C159.23 12.75 159.49 12.55 159.66 12.31C159.82 12.15 159.91 11.99 159.91 11.82L159.91 10.85C159.37 10.64 158.81 10.53 158.23 10.53C157.65 10.53 157.23 10.65 156.88 10.89C156.54 11.12 156.36 11.42 156.36 11.8C156.36 11.99 156.4 12.16 156.47 12.32C156.54 12.47 156.64 12.61 156.77 12.73C156.9 12.85 157.05 12.94 157.23 13C157.41 13.07 157.6 13.11 157.8 13.11L157.79 13.11Z" fill="#999999" fill-opacity="1.000000" fill-rule="nonzero"/>
		<path id="Vector" d="M175.18 13.82L174.07 13.82L174.07 10.14C174.07 9.45 173.96 8.95 173.74 8.62C173.52 8.29 173.18 8.13 172.75 8.13C172.32 8.13 171.89 8.29 171.54 8.61C171.19 8.93 170.93 9.35 170.78 9.86L170.78 13.81L169.67 13.81L169.67 10.13C169.67 9.43 169.56 8.92 169.34 8.6C169.12 8.28 168.8 8.13 168.37 8.13C167.94 8.13 167.52 8.28 167.15 8.59C166.79 8.91 166.54 9.33 166.39 9.85L166.39 13.81L165.28 13.81L165.28 7.25L166.29 7.25L166.29 8.66C166.55 8.17 166.9 7.8 167.33 7.53C167.76 7.27 168.24 7.13 168.78 7.13C169.32 7.13 169.77 7.28 170.09 7.58C170.41 7.88 170.62 8.26 170.7 8.73C171.28 7.66 172.12 7.13 173.2 7.13C173.57 7.13 173.89 7.2 174.14 7.34C174.4 7.48 174.6 7.67 174.75 7.92C174.9 8.17 175.01 8.46 175.08 8.8C175.15 9.13 175.18 9.49 175.18 9.89L175.18 13.82Z" fill="#999999" fill-opacity="1.000000" fill-rule="nonzero"/>
		<path id="Vector" d="M182.33 13.94C181.83 13.94 181.38 13.86 180.97 13.68C180.56 13.5 180.2 13.25 179.91 12.94C179.62 12.63 179.39 12.27 179.22 11.85C179.06 11.44 178.98 11 178.98 10.54C178.98 10.08 179.07 9.64 179.22 9.24C179.39 8.82 179.61 8.46 179.91 8.16C180.21 7.84 180.56 7.6 180.97 7.42C181.39 7.24 181.83 7.15 182.34 7.15C182.84 7.15 183.28 7.24 183.69 7.43C184.09 7.62 184.44 7.86 184.73 8.16C185.02 8.47 185.24 8.83 185.38 9.24C185.54 9.64 185.62 10.06 185.62 10.5C185.62 10.6 185.62 10.68 185.62 10.75C185.62 10.83 185.61 10.89 185.6 10.93L180.16 10.93C180.19 11.26 180.26 11.56 180.39 11.82C180.51 12.09 180.68 12.32 180.88 12.51C181.08 12.71 181.31 12.86 181.57 12.96C181.83 13.07 182.09 13.13 182.38 13.13C182.59 13.13 182.78 13.1 182.98 13.04C183.17 12.99 183.35 12.92 183.52 12.82C183.68 12.73 183.83 12.62 183.96 12.48C184.09 12.35 184.19 12.2 184.26 12.03L185.21 12.29C185.1 12.53 184.95 12.75 184.77 12.96C184.58 13.16 184.36 13.33 184.11 13.48C183.86 13.63 183.59 13.75 183.29 13.82C182.98 13.91 182.67 13.95 182.34 13.95L182.33 13.94ZM184.59 10.1C184.57 9.79 184.49 9.51 184.36 9.24C184.23 8.98 184.06 8.76 183.87 8.57C183.67 8.38 183.45 8.24 183.18 8.13C182.92 8.03 182.64 7.98 182.35 7.98C182.06 7.98 181.78 8.03 181.52 8.13C181.26 8.23 181.03 8.38 180.83 8.57C180.64 8.76 180.47 8.99 180.36 9.24C180.23 9.5 180.16 9.79 180.14 10.1L184.59 10.1L184.59 10.1Z" fill="#999999" fill-opacity="1.000000" fill-rule="nonzero"/>
		<path id="Vector" d="M195.07 13.82L193.96 13.82L193.96 10.14C193.96 9.44 193.85 8.92 193.64 8.61C193.43 8.29 193.1 8.13 192.66 8.13C192.44 8.13 192.21 8.18 191.98 8.27C191.76 8.35 191.54 8.48 191.34 8.63C191.14 8.77 190.97 8.95 190.81 9.17C190.66 9.38 190.54 9.6 190.47 9.85L190.47 13.82L189.36 13.82L189.36 7.25L190.37 7.25L190.37 8.66C190.63 8.2 191.01 7.83 191.5 7.55C191.99 7.27 192.52 7.13 193.1 7.13C193.48 7.13 193.79 7.2 194.05 7.34C194.3 7.48 194.5 7.67 194.65 7.92C194.8 8.17 194.91 8.46 194.97 8.8C195.03 9.13 195.06 9.49 195.06 9.89L195.06 13.82L195.07 13.82Z" fill="#999999" fill-opacity="1.000000" fill-rule="nonzero"/>
		<path id="Vector" d="M202.64 13.49C202.57 13.52 202.48 13.56 202.37 13.61C202.26 13.65 202.14 13.7 202 13.75C201.86 13.79 201.72 13.83 201.55 13.86C201.39 13.89 201.22 13.91 201.04 13.91C200.64 13.91 200.29 13.8 200 13.57C199.7 13.35 199.56 13 199.56 12.53L199.56 8.12L198.67 8.12L198.67 7.25L199.56 7.25L199.56 5.06L200.67 5.06L200.67 7.25L202.14 7.25L202.14 8.12L200.67 8.12L200.67 12.19C200.68 12.43 200.76 12.61 200.91 12.72C201.05 12.83 201.22 12.89 201.41 12.89C201.63 12.89 201.83 12.85 202 12.78C202.18 12.71 202.31 12.65 202.37 12.6L202.64 13.49Z" fill="#999999" fill-opacity="1.000000" fill-rule="nonzero"/>
		<path id="Vector" d="M208.96 13.94C208.47 13.94 208.02 13.85 207.61 13.67C207.2 13.48 206.86 13.24 206.56 12.93C206.27 12.61 206.05 12.25 205.89 11.84C205.73 11.43 205.65 10.99 205.65 10.54C205.65 10.09 205.73 9.64 205.89 9.24C206.05 8.82 206.28 8.46 206.57 8.16C206.86 7.84 207.21 7.6 207.62 7.41C208.02 7.23 208.47 7.13 208.95 7.13C209.44 7.13 209.89 7.23 210.3 7.41C210.71 7.6 211.06 7.84 211.35 8.16C211.64 8.47 211.86 8.83 212.03 9.24C212.19 9.64 212.27 10.08 212.27 10.54C212.27 11 212.19 11.42 212.03 11.84C211.87 12.25 211.64 12.61 211.35 12.93C211.05 13.24 210.71 13.48 210.3 13.67C209.89 13.85 209.44 13.94 208.95 13.94L208.96 13.94ZM206.77 10.56C206.77 10.9 206.83 11.22 206.95 11.51C207.06 11.81 207.21 12.06 207.41 12.28C207.61 12.5 207.84 12.67 208.1 12.79C208.37 12.92 208.65 12.98 208.95 12.98C209.24 12.98 209.53 12.92 209.8 12.79C210.06 12.67 210.3 12.5 210.49 12.27C210.7 12.04 210.85 11.78 210.96 11.49C211.08 11.19 211.14 10.87 211.14 10.53C211.14 10.18 211.08 9.88 210.96 9.58C210.85 9.28 210.69 9.02 210.49 8.8C210.29 8.58 210.06 8.4 209.8 8.27C209.54 8.15 209.25 8.09 208.95 8.09C208.64 8.09 208.36 8.15 208.1 8.28C207.84 8.41 207.61 8.59 207.41 8.81C207.22 9.03 207.06 9.29 206.95 9.59C206.83 9.88 206.77 10.21 206.77 10.55L206.77 10.56Z" fill="#999999" fill-opacity="1.000000" fill-rule="nonzero"/>
		<path id="Vector" d="M119.12 29.55C119.12 28.63 119.29 27.73 119.61 26.84C119.94 25.95 120.43 25.15 121.05 24.46C121.69 23.75 122.45 23.19 123.37 22.75C124.28 22.32 125.31 22.1 126.48 22.1C127.85 22.1 129.04 22.41 130.04 23.01C131.04 23.61 131.79 24.4 132.28 25.36L130.05 26.9C129.85 26.47 129.61 26.12 129.33 25.83C129.05 25.54 128.75 25.32 128.42 25.15C128.1 24.98 127.77 24.86 127.42 24.79C127.06 24.71 126.72 24.67 126.38 24.67C125.66 24.67 125.02 24.82 124.48 25.11C123.94 25.41 123.49 25.79 123.13 26.26C122.77 26.73 122.51 27.26 122.32 27.86C122.14 28.45 122.05 29.05 122.05 29.63C122.05 30.29 122.15 30.92 122.36 31.54C122.57 32.15 122.87 32.69 123.25 33.15C123.63 33.61 124.09 33.99 124.64 34.26C125.18 34.54 125.77 34.68 126.42 34.68C126.75 34.68 127.1 34.64 127.47 34.56C127.84 34.47 128.18 34.34 128.51 34.16C128.84 33.98 129.14 33.74 129.42 33.45C129.71 33.17 129.93 32.82 130.1 32.41L132.47 33.78C132.24 34.35 131.89 34.84 131.46 35.27C131.01 35.7 130.52 36.06 129.96 36.36C129.41 36.65 128.82 36.87 128.19 37.03C127.56 37.18 126.94 37.26 126.34 37.26C125.27 37.26 124.3 37.04 123.41 36.59C122.53 36.14 121.77 35.56 121.13 34.83C120.49 34.1 120 33.29 119.64 32.37C119.28 31.45 119.1 30.52 119.1 29.56L119.12 29.55Z" fill="#87A7D5" fill-opacity="1.000000" fill-rule="nonzero"/>
		<path id="Vector" d="M135.86 21.77L138.68 21.77L138.68 24.57L135.86 24.57L135.86 21.77ZM135.86 26.1L138.68 26.1L138.68 37.12L135.86 37.12L135.86 26.1Z" fill="#87A7D5" fill-opacity="1.000000" fill-rule="nonzero"/>
		<path id="Vector" d="M149.51 36.55C149.13 36.72 148.66 36.89 148.12 37.06C147.57 37.23 147 37.31 146.39 37.31C146 37.31 145.63 37.26 145.29 37.16C144.94 37.07 144.65 36.9 144.38 36.69C144.11 36.48 143.91 36.19 143.76 35.85C143.61 35.5 143.53 35.09 143.53 34.6L143.53 28.26L142.07 28.26L142.07 26.1L143.53 26.1L143.53 22.53L146.35 22.53L146.35 26.1L148.66 26.1L148.66 28.26L146.35 28.26L146.35 33.65C146.35 34.04 146.45 34.32 146.66 34.48C146.86 34.64 147.11 34.72 147.4 34.72C147.69 34.72 147.98 34.67 148.26 34.57C148.54 34.48 148.77 34.39 148.93 34.32L149.5 36.55L149.51 36.55Z" fill="#87A7D5" fill-opacity="1.000000" fill-rule="nonzero"/>
		<path id="Vector" d="M152.89 39.26C153.13 39.33 153.36 39.39 153.59 39.42C153.82 39.46 154 39.47 154.16 39.47C154.34 39.47 154.51 39.44 154.67 39.37C154.83 39.3 154.97 39.18 155.09 39.01C155.22 38.83 155.34 38.59 155.47 38.28C155.61 37.97 155.73 37.58 155.87 37.12L151.52 26.1L154.42 26.1L157.4 34.68L160.06 26.1L162.71 26.1L158.08 39.3C157.81 40.08 157.36 40.7 156.71 41.19C156.07 41.69 155.26 41.93 154.31 41.93C154.08 41.93 153.86 41.91 153.63 41.87C153.39 41.84 153.15 41.78 152.9 41.69L152.9 39.26L152.89 39.26Z" fill="#87A7D5" fill-opacity="1.000000" fill-rule="nonzero"/>
		<path id="Vector" d="M174.98 37.32C174.15 37.32 173.4 37.17 172.72 36.86C172.04 36.56 171.46 36.14 170.98 35.62C170.49 35.1 170.12 34.5 169.85 33.81C169.58 33.13 169.45 32.41 169.45 31.65C169.45 30.89 169.58 30.15 169.87 29.46C170.14 28.77 170.52 28.17 171 27.65C171.48 27.14 172.06 26.72 172.74 26.41C173.42 26.11 174.17 25.95 174.99 25.95C175.81 25.95 176.55 26.11 177.24 26.41C177.93 26.72 178.51 27.13 179 27.65C179.48 28.17 179.86 28.77 180.13 29.46C180.4 30.15 180.54 30.88 180.54 31.65C180.54 32.42 180.4 33.13 180.14 33.81C179.87 34.5 179.49 35.1 179.01 35.62C178.51 36.14 177.93 36.55 177.25 36.86C176.57 37.17 175.82 37.32 174.99 37.32L174.98 37.32ZM171.34 31.66C171.34 32.24 171.44 32.77 171.63 33.26C171.81 33.75 172.07 34.17 172.41 34.54C172.74 34.91 173.12 35.19 173.56 35.4C174.01 35.61 174.48 35.71 174.99 35.71C175.49 35.71 175.96 35.61 176.41 35.4C176.85 35.19 177.24 34.9 177.57 34.53C177.91 34.16 178.18 33.72 178.36 33.22C178.55 32.72 178.65 32.19 178.65 31.61C178.65 31.03 178.55 30.52 178.36 30.02C178.18 29.52 177.91 29.09 177.57 28.72C177.24 28.35 176.85 28.05 176.41 27.84C175.96 27.63 175.49 27.53 174.99 27.53C174.48 27.53 174.01 27.64 173.56 27.86C173.12 28.08 172.74 28.37 172.41 28.74C172.08 29.12 171.82 29.55 171.63 30.05C171.44 30.55 171.34 31.08 171.34 31.66L171.34 31.66Z" fill="#87A7D5" fill-opacity="1.000000" fill-rule="nonzero"/>
		<path id="Vector" d="M184.02 37.11L184.02 27.58L182.53 27.58L182.53 26.13L184.02 26.13L184.02 25.9C184.02 24.53 184.32 23.47 184.93 22.7C185.53 21.92 186.35 21.54 187.39 21.54C187.83 21.54 188.25 21.6 188.68 21.72C189.1 21.84 189.47 22 189.81 22.21L189.35 23.58C189.15 23.44 188.91 23.33 188.62 23.24C188.33 23.16 188.05 23.12 187.77 23.12C187.15 23.12 186.68 23.35 186.36 23.82C186.04 24.28 185.88 24.95 185.88 25.83L185.88 26.13L188.8 26.13L188.8 27.58L185.88 27.58L185.88 37.11L184.02 37.11Z" fill="#87A7D5" fill-opacity="1.000000" fill-rule="nonzero"/>
		<path id="Vector" d="M130.39 57.74C129.2 58.94 127.81 59.53 126.23 59.53C125.24 59.53 124.32 59.34 123.46 58.95C122.6 58.56 121.85 58.02 121.21 57.33C120.57 56.64 120.07 55.84 119.69 54.9C119.32 53.97 119.14 52.96 119.14 51.88C119.14 50.86 119.32 49.9 119.69 48.99C120.07 48.08 120.58 47.29 121.23 46.61C121.88 45.93 122.66 45.39 123.53 44.99C124.41 44.6 125.38 44.39 126.42 44.39C127.81 44.39 129.02 44.69 130.02 45.28C131.02 45.86 131.78 46.66 132.28 47.65L130.11 49.25C129.74 48.5 129.21 47.93 128.53 47.54C127.85 47.15 127.1 46.96 126.31 46.96C125.67 46.96 125.09 47.09 124.57 47.35C124.05 47.62 123.59 47.99 123.23 48.45C122.86 48.91 122.57 49.44 122.37 50.05C122.16 50.65 122.06 51.29 122.06 51.97C122.06 52.64 122.17 53.33 122.4 53.93C122.62 54.54 122.93 55.07 123.32 55.52C123.71 55.97 124.18 56.32 124.72 56.58C125.26 56.84 125.84 56.97 126.48 56.97C127.92 56.97 129.22 56.29 130.39 54.93L130.39 53.88L127.38 53.88L127.38 51.76L132.78 51.76L132.78 59.43L130.38 59.43L130.38 57.75L130.39 57.74Z" fill="#87A7D5" fill-opacity="1.000000" fill-rule="nonzero"/>
		<path id="Vector" d="M141.77 59.64C140.87 59.64 140.07 59.48 139.35 59.17C138.63 58.87 138.03 58.45 137.53 57.92C137.03 57.4 136.65 56.79 136.38 56.1C136.12 55.41 135.98 54.7 135.98 53.94C135.98 53.18 136.12 52.44 136.38 51.75C136.65 51.06 137.03 50.46 137.53 49.93C138.03 49.39 138.63 48.98 139.35 48.68C140.07 48.37 140.88 48.21 141.77 48.21C142.66 48.21 143.47 48.37 144.18 48.68C144.89 48.99 145.49 49.4 145.98 49.93C146.48 50.45 146.87 51.06 147.13 51.75C147.4 52.44 147.53 53.16 147.53 53.94C147.53 54.71 147.4 55.41 147.13 56.1C146.87 56.79 146.49 57.39 146 57.92C145.51 58.45 144.9 58.87 144.19 59.17C143.47 59.48 142.67 59.64 141.78 59.64L141.77 59.64ZM138.89 53.94C138.89 54.43 138.96 54.88 139.11 55.27C139.26 55.67 139.46 56.02 139.72 56.31C139.98 56.61 140.28 56.84 140.64 56.99C140.99 57.16 141.36 57.24 141.77 57.24C142.17 57.24 142.55 57.16 142.9 56.99C143.25 56.83 143.56 56.6 143.82 56.31C144.08 56.02 144.28 55.67 144.43 55.26C144.58 54.85 144.65 54.41 144.65 53.91C144.65 53.42 144.57 53 144.43 52.59C144.28 52.19 144.08 51.83 143.82 51.54C143.56 51.24 143.25 51.01 142.9 50.86C142.55 50.69 142.17 50.61 141.77 50.61C141.36 50.61 140.99 50.7 140.64 50.86C140.28 51.04 139.98 51.26 139.72 51.56C139.46 51.86 139.26 52.2 139.11 52.61C138.96 53.01 138.89 53.46 138.89 53.94Z" fill="#87A7D5" fill-opacity="1.000000" fill-rule="nonzero"/>
		<path id="Vector" d="M156.19 59.64C155.29 59.64 154.49 59.48 153.78 59.17C153.06 58.87 152.46 58.45 151.96 57.92C151.46 57.4 151.07 56.79 150.81 56.1C150.54 55.41 150.41 54.7 150.41 53.94C150.41 53.18 150.54 52.44 150.81 51.75C151.07 51.06 151.46 50.46 151.96 49.93C152.46 49.39 153.06 48.98 153.78 48.68C154.49 48.37 155.3 48.21 156.19 48.21C157.08 48.21 157.9 48.37 158.6 48.68C159.31 48.99 159.91 49.4 160.41 49.93C160.91 50.45 161.29 51.06 161.56 51.75C161.82 52.44 161.95 53.16 161.95 53.94C161.95 54.71 161.82 55.41 161.56 56.1C161.29 56.79 160.91 57.39 160.42 57.92C159.93 58.45 159.33 58.87 158.62 59.17C157.9 59.48 157.09 59.64 156.2 59.64L156.19 59.64ZM153.32 53.94C153.32 54.43 153.39 54.88 153.53 55.27C153.68 55.67 153.89 56.02 154.14 56.31C154.4 56.61 154.71 56.84 155.06 56.99C155.41 57.16 155.79 57.24 156.19 57.24C156.6 57.24 156.97 57.16 157.33 56.99C157.68 56.83 157.98 56.6 158.24 56.31C158.5 56.02 158.7 55.67 158.85 55.26C159 54.85 159.07 54.41 159.07 53.91C159.07 53.42 158.99 53 158.85 52.59C158.7 52.19 158.5 51.83 158.24 51.54C157.98 51.24 157.68 51.01 157.33 50.86C156.97 50.69 156.6 50.61 156.19 50.61C155.79 50.61 155.41 50.7 155.06 50.86C154.71 51.04 154.4 51.26 154.14 51.56C153.89 51.86 153.68 52.2 153.53 52.61C153.39 53.01 153.32 53.46 153.32 53.94Z" fill="#87A7D5" fill-opacity="1.000000" fill-rule="nonzero"/>
		<path id="Vector" d="M170.1 59.64C169.34 59.64 168.64 59.49 168 59.19C167.35 58.89 166.79 58.49 166.33 57.97C165.87 57.46 165.5 56.85 165.25 56.15C164.99 55.45 164.86 54.71 164.86 53.91C164.86 53.1 164.98 52.37 165.22 51.68C165.46 50.99 165.81 50.39 166.24 49.87C166.68 49.36 167.19 48.95 167.79 48.65C168.4 48.36 169.05 48.21 169.77 48.21C170.59 48.21 171.32 48.4 171.97 48.79C172.63 49.18 173.13 49.7 173.49 50.33L173.49 44.06L176.31 44.06L176.31 56.17C176.31 56.46 176.35 56.67 176.46 56.8C176.55 56.92 176.72 56.99 176.96 57.01L176.96 59.41C176.47 59.51 176.07 59.56 175.77 59.56C175.26 59.56 174.85 59.43 174.53 59.17C174.2 58.92 174.02 58.6 173.98 58.18L173.92 57.49C173.51 58.19 172.96 58.71 172.27 59.07C171.57 59.43 170.84 59.61 170.09 59.61L170.1 59.64ZM170.83 57.21C171.09 57.21 171.37 57.17 171.65 57.07C171.93 56.99 172.19 56.85 172.43 56.68C172.67 56.51 172.88 56.31 173.07 56.09C173.26 55.87 173.41 55.63 173.5 55.36L173.5 52.73C173.39 52.43 173.23 52.14 173.03 51.88C172.83 51.62 172.59 51.4 172.34 51.21C172.08 51.02 171.81 50.86 171.52 50.76C171.23 50.65 170.95 50.58 170.66 50.58C170.24 50.58 169.85 50.68 169.5 50.86C169.14 51.04 168.83 51.29 168.58 51.61C168.33 51.92 168.14 52.29 168 52.69C167.86 53.1 167.79 53.52 167.79 53.95C167.79 54.41 167.86 54.84 168.02 55.23C168.18 55.63 168.39 55.97 168.65 56.27C168.92 56.56 169.24 56.79 169.61 56.96C169.98 57.13 170.39 57.21 170.84 57.21L170.83 57.21Z" fill="#87A7D5" fill-opacity="1.000000" fill-rule="nonzero"/>
		<path id="Vector" d="M191.02 59.43L188.2 59.43L188.2 53.24C188.2 52.36 188.04 51.71 187.74 51.3C187.43 50.9 187 50.69 186.46 50.69C186.17 50.69 185.88 50.75 185.6 50.86C185.3 50.97 185.03 51.13 184.77 51.33C184.51 51.54 184.27 51.78 184.06 52.06C183.85 52.34 183.7 52.65 183.6 52.98L183.6 59.42L180.78 59.42L180.78 48.39L183.33 48.39L183.33 50.43C183.74 49.73 184.32 49.18 185.1 48.79C185.87 48.4 186.74 48.21 187.71 48.21C188.39 48.21 188.96 48.33 189.39 48.59C189.83 48.84 190.16 49.17 190.4 49.57C190.63 49.98 190.8 50.44 190.89 50.96C190.98 51.47 191.03 52.01 191.03 52.54L191.03 59.42L191.02 59.43Z" fill="#87A7D5" fill-opacity="1.000000" fill-rule="nonzero"/>
		<path id="Vector" d="M200.28 59.64C199.39 59.64 198.6 59.49 197.88 59.18C197.17 58.89 196.55 58.47 196.05 57.96C195.55 57.44 195.16 56.84 194.88 56.15C194.61 55.46 194.48 54.74 194.48 53.98C194.48 53.23 194.61 52.46 194.88 51.76C195.14 51.07 195.52 50.46 196.03 49.93C196.54 49.41 197.15 48.99 197.87 48.68C198.59 48.38 199.4 48.22 200.3 48.22C201.2 48.22 202 48.38 202.71 48.68C203.42 48.99 204.02 49.4 204.51 49.93C205.01 50.44 205.39 51.05 205.65 51.73C205.91 52.42 206.04 53.13 206.04 53.87C206.04 54.05 206.04 54.23 206.03 54.4C206.02 54.56 206.01 54.7 205.98 54.82L197.45 54.82C197.49 55.26 197.6 55.64 197.77 55.98C197.94 56.31 198.15 56.6 198.42 56.84C198.68 57.08 198.99 57.26 199.32 57.38C199.66 57.51 200.01 57.57 200.37 57.57C200.93 57.57 201.47 57.43 201.96 57.16C202.46 56.88 202.79 56.52 202.97 56.08L205.39 56.75C204.98 57.6 204.33 58.28 203.44 58.82C202.55 59.36 201.49 59.63 200.25 59.63L200.28 59.64ZM203.12 52.98C203.04 52.15 202.74 51.49 202.2 51C201.66 50.5 201 50.26 200.23 50.26C199.85 50.26 199.5 50.32 199.17 50.45C198.84 50.58 198.55 50.77 198.29 51.01C198.04 51.25 197.83 51.53 197.67 51.87C197.51 52.2 197.42 52.58 197.39 52.98L203.12 52.98L203.12 52.98Z" fill="#87A7D5" fill-opacity="1.000000" fill-rule="nonzero"/>
		<path id="Vector" d="M213.61 59.64C212.69 59.64 211.78 59.49 210.9 59.19C210.02 58.89 209.26 58.48 208.63 57.93L209.68 56.17C210.35 56.64 211.01 57 211.65 57.25C212.29 57.5 212.93 57.62 213.56 57.62C214.12 57.62 214.56 57.52 214.88 57.31C215.2 57.1 215.37 56.79 215.37 56.4C215.37 56.01 215.18 55.72 214.79 55.54C214.42 55.36 213.8 55.15 212.94 54.91C212.22 54.71 211.62 54.52 211.11 54.34C210.6 54.16 210.2 53.94 209.89 53.72C209.58 53.48 209.36 53.22 209.22 52.92C209.08 52.62 209.01 52.26 209.01 51.83C209.01 51.27 209.12 50.77 209.34 50.32C209.56 49.87 209.86 49.49 210.25 49.17C210.64 48.86 211.1 48.61 211.63 48.44C212.15 48.27 212.72 48.19 213.34 48.19C214.17 48.19 214.94 48.31 215.66 48.55C216.38 48.79 217.05 49.18 217.65 49.71L216.51 51.41C215.95 50.99 215.41 50.68 214.88 50.48C214.36 50.29 213.83 50.18 213.32 50.18C212.84 50.18 212.44 50.28 212.11 50.48C211.79 50.68 211.63 51 211.63 51.43C211.63 51.62 211.67 51.79 211.75 51.91C211.82 52.04 211.95 52.15 212.11 52.25C212.29 52.35 212.5 52.44 212.78 52.53C213.05 52.62 213.39 52.72 213.79 52.81C214.55 53.01 215.2 53.2 215.74 53.4C216.28 53.59 216.73 53.82 217.07 54.07C217.41 54.32 217.66 54.62 217.83 54.95C217.98 55.27 218.07 55.67 218.07 56.13C218.07 57.21 217.67 58.06 216.87 58.69C216.08 59.32 214.99 59.63 213.61 59.63L213.61 59.64Z" fill="#87A7D5" fill-opacity="1.000000" fill-rule="nonzero"/>
		<path id="Vector" d="M225.75 59.64C224.82 59.64 223.92 59.49 223.03 59.19C222.15 58.89 221.39 58.48 220.77 57.93L221.81 56.17C222.49 56.64 223.14 57 223.78 57.25C224.43 57.5 225.06 57.62 225.69 57.62C226.26 57.62 226.69 57.52 227.01 57.31C227.33 57.1 227.5 56.79 227.5 56.4C227.5 56.01 227.31 55.72 226.93 55.54C226.55 55.36 225.93 55.15 225.07 54.91C224.36 54.71 223.75 54.52 223.25 54.34C222.74 54.16 222.33 53.94 222.03 53.72C221.71 53.48 221.49 53.22 221.35 52.92C221.21 52.62 221.14 52.26 221.14 51.83C221.14 51.27 221.25 50.77 221.47 50.32C221.69 49.87 221.99 49.49 222.39 49.17C222.78 48.86 223.24 48.61 223.76 48.44C224.29 48.27 224.86 48.19 225.47 48.19C226.3 48.19 227.08 48.31 227.8 48.55C228.51 48.79 229.18 49.18 229.78 49.71L228.65 51.41C228.08 50.99 227.55 50.68 227.01 50.48C226.49 50.29 225.97 50.18 225.45 50.18C224.97 50.18 224.57 50.28 224.25 50.48C223.93 50.68 223.76 51 223.76 51.43C223.76 51.62 223.8 51.79 223.88 51.91C223.96 52.04 224.08 52.15 224.25 52.25C224.42 52.35 224.64 52.44 224.91 52.53C225.18 52.62 225.52 52.72 225.93 52.81C226.69 53.01 227.33 53.2 227.87 53.4C228.41 53.59 228.86 53.82 229.2 54.07C229.55 54.32 229.8 54.62 229.96 54.95C230.12 55.27 230.2 55.67 230.2 56.13C230.2 57.21 229.8 58.06 229.01 58.69C228.21 59.32 227.12 59.63 225.75 59.63L225.75 59.64Z" fill="#87A7D5" fill-opacity="1.000000" fill-rule="nonzero"/>
		<mask id="mask33_1174" mask-type="alpha" maskUnits="userSpaceOnUse" x="0.148682" y="25.274658" width="66.763184" height="32.443481">
			<path id="Vector" d="M55.79 37.02L55.8 37.02C55.8 37.02 55.8 37.02 55.79 37.02ZM55.8 37.02C60.26 39.28 64.05 42.27 66.88 45.46L66.91 35.02L55.8 37.01L55.8 37.02ZM30.17 33.81L20.94 28.45L18.86 38.42L8.68 37.14L9.93 46.14L0.14 48.76L3.51 57.71L3.52 57.71C8.53 42.31 23.99 31.71 41.42 32.98C46.67 33.36 51.53 34.85 55.79 37.01L52.51 27.44L43.66 33.21L36.61 25.27L30.19 33.82L30.17 33.81Z" fill="#000000" fill-opacity="1.000000" fill-rule="nonzero"/>
		</mask>
		<g mask="url(#mask33_1174)">
			<path id="Vector" d="M0 25.21L66.91 25.26L67.06 57.76L0.14 57.71L0 25.21Z" fill="url(#paint_linear_33_1175_0)" fill-opacity="1.000000" fill-rule="nonzero"/>
		</g>
		<path id="Vector" d="M72.84 51.18C69.23 51.24 66.06 51.69 63.29 52.37C71.04 55.54 77.62 61.5 81.6 65.73L97.16 65.73C97.16 65.73 87.12 57.62 72.84 51.18Z" fill="#89ADD9" fill-opacity="1.000000" fill-rule="nonzero"/>
		<path id="Vector" d="M49.25 60.01C53.28 61.97 56.26 63.9 57.75 64.94C55.11 62.8 52.34 61.07 49.58 59.68C49.47 59.79 49.36 59.9 49.25 60.01Z" fill="#F9ED32" fill-opacity="1.000000" fill-rule="nonzero"/>
		<path id="Vector" d="M49.58 59.68C36.82 53.26 24.16 53.98 24.16 53.98C36.57 47.08 49.29 47.03 62.49 52.05C62.76 52.15 63.03 52.26 63.3 52.37C66.06 51.68 69.23 51.23 72.84 51.17C64.87 47.58 55.59 44.51 45.99 43.65C19.15 41.26 3.52 60.11 3.52 60.11C20.63 49.45 38.6 54.82 49.25 60.01C49.36 59.9 49.47 59.79 49.58 59.68Z" fill="#8E87C0" fill-opacity="1.000000" fill-rule="nonzero"/>
		<path id="Vector" d="M24.16 53.98C24.16 53.98 36.5 53.59 49.25 60.01C51.82 57.52 56.52 54.05 63.29 52.37C63.03 52.26 62.76 52.15 62.49 52.05C49.29 47.03 36.57 47.08 24.16 53.98Z" fill="#86AFDA" fill-opacity="1.000000" fill-rule="nonzero"/>
		<path id="Vector" d="M81.6 65.73C77.62 61.5 71.04 55.54 63.29 52.37C56.52 54.06 51.82 57.53 49.25 60.02C52.01 61.41 55.01 62.97 57.75 65.08C59.78 66.63 61.65 68.39 63.44 70.5L85.72 70.5C85.72 70.5 84.22 68.49 81.6 65.73L81.6 65.73Z" fill="#7ECDD6" fill-opacity="1.000000" fill-rule="nonzero"/>
		<mask id="mask33_1185" mask-type="alpha" maskUnits="userSpaceOnUse" x="75.057861" y="0.171875" width="35.398438" height="60.821655">
			<path id="Vector" d="M95.05 48.96L95.12 48.89L97.29 46.72L102.48 41.53L102.48 56.07L95.06 48.95L95.05 48.96ZM91.45 45.42L84.11 38.07L92.58 29.61L101.33 38.36L95.13 44.56L92.96 46.72L92.87 46.82L91.47 45.42L91.45 45.42ZM83.04 20.08L90.41 27.44L83.04 34.81L83.04 20.08ZM94.74 27.44L102.47 19.71L102.47 35.17L94.74 27.44ZM84.87 17.58L100.27 17.58L92.57 25.28L84.87 17.58ZM104.19 0.17L102.47 2.61L102.47 4.76L83.04 4.76L83.04 2.61L81.32 0.17L77.01 0.17L75.05 2.61L75.05 51.15C76.81 51.15 80.4 51.58 83.04 52.04L83.04 41.33L89.29 47.58L90.69 48.98L86.61 53.06C87.68 53.37 88.77 53.73 89.88 54.11L92.85 51.14L102.87 60.93L110.45 60.99L110.45 2.61L108.36 0.17L104.18 0.17L104.19 0.17Z" fill="#000000" fill-opacity="1.000000" fill-rule="nonzero"/>
		</mask>
		<g mask="url(#mask33_1185)">
			<path id="Vector" d="M74.75 60.99L75.05 -0.01L110.76 0.16L110.46 61.16L74.75 60.99Z" fill="url(#paint_linear_33_1186_0)" fill-opacity="1.000000" fill-rule="evenodd"/>
		</g>
	</g>
</svg>
