<svg width="11.000000" height="12.000000" viewBox="0 0 11 12" fill="none" xmlns="http://www.w3.org/2000/svg" xmlns:xlink="http://www.w3.org/1999/xlink">
	<desc>
			Created with Pixso.
	</desc>
	<defs/>
	<path id="pseudo" d="M4.45 10.76L-0.55 5.54Q-0.6 5.49 -0.64 5.42Q-0.68 5.36 -0.7 5.29Q-0.73 5.22 -0.74 5.15Q-0.76 5.08 -0.75 5Q-0.75 4.93 -0.74 4.86Q-0.72 4.79 -0.69 4.72Q-0.66 4.65 -0.62 4.59Q-0.58 4.53 -0.52 4.48Q-0.52 4.48 -0.52 4.48L4.48 -0.3L5.51 0.79L0.51 5.56L0 5.02L0.54 4.5L5.54 9.73L4.45 10.76ZM0 4.27L10 4.27L10 5.77L0 5.77L0 4.27ZM4.48 -0.27L4.48 -0.3C4.78 -0.59 5.25 -0.58 5.54 -0.27C5.83 0.03 5.82 0.5 5.51 0.79L5.48 0.79L4.48 -0.27ZM5.51 9.73L5.54 9.73C5.83 10.03 5.82 10.5 5.51 10.79C5.21 11.08 4.74 11.07 4.45 10.76L4.45 10.74L5.51 9.73ZM9.97 4.29L10 4.27C10.41 4.27 10.75 4.6 10.75 5.02C10.75 5.44 10.41 5.77 10 5.77L9.97 5.75L9.97 4.29Z" fill="#0D1304" fill-opacity="1.000000" fill-rule="evenodd"/>
</svg>
