<svg width="121.000000" height="117.000000" viewBox="0 0 121 117" fill="none" xmlns="http://www.w3.org/2000/svg" xmlns:xlink="http://www.w3.org/1999/xlink">
	<desc>
			Created with Pixso.
	</desc>
	<defs/>
	<path id="Vector 448" d="M45.71 42.69C45.43 43.5 44.67 44.04 43.82 44.04L7.3 44.04C5.34 44.04 4.55 46.55 6.14 47.68L36.02 68.77C36.73 69.27 37.03 70.16 36.78 70.98L25.54 108.2C24.98 110.05 27.1 111.54 28.65 110.39L58.8 87.98C59.51 87.45 60.48 87.45 61.19 87.98L91.34 110.39C92.89 111.54 95.01 110.05 94.45 108.2L83.21 70.98C82.96 70.16 83.27 69.27 83.97 68.77L113.85 47.68C115.44 46.55 114.65 44.04 112.69 44.04L76.17 44.04C75.32 44.04 74.56 43.5 74.28 42.69L61.89 6.52C61.27 4.71 58.72 4.71 58.1 6.52L45.71 42.69Z" stroke="#7ECDD6" stroke-opacity="1.000000" stroke-width="12.000000" stroke-linejoin="round"/>
</svg>
